<?xml version="1.0" standalone="no"?>
<!DOCTYPE svg PUBLIC "-//W3C//DTD SVG 20010904//EN"
 "http://www.w3.org/TR/2001/REC-SVG-20010904/DTD/svg10.dtd">
<svg version="1.0" xmlns="http://www.w3.org/2000/svg"
 width="1024.000000pt" height="1024.000000pt" viewBox="0 0 1024.000000 1024.000000"
 preserveAspectRatio="xMidYMid meet">
<metadata>
Created by potrace 1.11, written by Peter Selinger 2001-2013
</metadata>
<g transform="translate(0.000000,1024.000000) scale(0.100000,-0.100000)"
fill="#000000" stroke="none">
<path d="M783 10174 c-8 -21 -7 -72 3 -319 17 -379 10 -1859 -11 -2495 -2 -69
-7 -208 -10 -310 -3 -102 -7 -241 -10 -310 -2 -69 -7 -201 -10 -295 -3 -93 -8
-213 -10 -265 -3 -52 -7 -160 -10 -240 -3 -80 -8 -185 -10 -235 -7 -138 -14
-307 -20 -445 -3 -69 -7 -163 -10 -210 -3 -47 -7 -132 -10 -190 -3 -58 -7
-154 -10 -215 -4 -60 -8 -146 -10 -190 -3 -44 -7 -132 -10 -195 -3 -63 -8
-140 -10 -170 -2 -30 -6 -113 -10 -185 -3 -71 -8 -155 -10 -185 -2 -30 -7
-109 -10 -175 -3 -66 -8 -138 -10 -160 -2 -22 -7 -98 -10 -170 -4 -71 -8 -148
-10 -170 -2 -22 -7 -89 -10 -150 -11 -186 -13 -217 -19 -300 -4 -44 -8 -120
-11 -170 -3 -49 -8 -115 -10 -145 -3 -30 -7 -84 -9 -120 -3 -36 -8 -108 -12
-160 -8 -114 -10 -134 -18 -275 -4 -60 -9 -121 -11 -135 -2 -14 -7 -70 -10
-125 -3 -55 -8 -113 -10 -130 -2 -16 -7 -75 -10 -130 -4 -55 -8 -111 -10 -125
-2 -14 -7 -63 -10 -110 -3 -47 -7 -96 -10 -110 -2 -14 -7 -63 -10 -110 -3 -47
-8 -101 -10 -120 -2 -19 -7 -62 -10 -95 -5 -60 -12 -129 -20 -195 -2 -19 -7
-64 -11 -100 -3 -36 -8 -73 -10 -82 -1 -10 -6 -49 -10 -88 l-7 -70 1617 0
1617 0 -6 36 c-40 256 -49 1373 -20 2464 11 401 17 618 20 715 2 61 7 193 10
295 3 102 8 221 10 265 2 44 7 166 10 270 4 105 8 219 10 255 2 36 6 135 10
221 3 86 8 183 10 215 2 33 6 124 10 204 3 80 8 174 10 210 2 36 7 126 10 200
3 74 8 155 10 180 2 25 7 101 10 170 3 69 8 152 10 185 3 33 7 101 10 150 3
50 8 119 10 155 2 36 7 106 10 155 3 50 8 119 11 155 3 36 7 92 9 125 2 33 7
90 10 127 4 37 8 87 10 110 6 82 17 203 20 233 1 17 6 66 10 110 4 44 8 87 10
95 2 8 6 47 10 85 11 115 37 283 56 370 20 86 31 100 96 118 32 8 80 18 106
22 27 4 58 8 70 11 12 2 54 6 94 9 40 4 82 8 93 10 132 26 1028 25 1215 0 17
-3 73 -9 125 -15 52 -5 115 -13 139 -16 41 -5 222 -37 266 -48 292 -67 451
-140 583 -268 94 -91 179 -223 229 -358 21 -55 34 -93 34 -97 0 -2 5 -17 10
-35 28 -92 41 -187 44 -318 5 -199 -30 -347 -119 -497 -202 -339 -556 -551
-1096 -658 -8 -1 -40 -6 -70 -10 -30 -3 -66 -8 -80 -10 -14 -2 -56 -7 -95 -11
-38 -3 -83 -8 -100 -9 -43 -5 -468 -5 -540 -1 -93 6 -223 17 -258 21 -18 2
-57 6 -87 10 -97 11 -229 29 -365 50 -91 14 -97 -35 -27 -205 104 -252 221
-563 397 -1055 144 -404 343 -944 365 -990 5 -11 19 -45 31 -75 12 -30 30 -74
40 -97 11 -24 19 -46 19 -50 0 -8 51 -145 70 -188 4 -11 81 -211 170 -445 151
-395 310 -808 330 -855 4 -11 25 -63 45 -115 20 -52 43 -111 50 -130 36 -89
130 -334 161 -415 19 -49 39 -99 44 -110 9 -19 93 -235 96 -245 0 -3 5 -14 9
-25 5 -11 64 -162 131 -335 l123 -315 1786 -3 c982 -1 1784 1 1782 5 -6 13
-63 132 -100 213 -19 41 -64 136 -99 210 -36 74 -77 160 -90 190 -27 57 -52
112 -173 370 -112 238 -354 763 -403 870 -68 152 -279 615 -303 667 -16 34
-29 65 -29 68 0 3 -15 38 -34 77 -19 40 -41 89 -49 108 -21 48 -65 149 -82
185 -8 17 -46 104 -85 195 -39 91 -75 174 -80 185 -104 229 -283 690 -294 756
l-5 36 67 28 c116 49 425 209 512 265 8 5 35 21 60 36 362 220 732 520 902
734 204 257 366 621 458 1030 29 127 35 161 65 346 2 11 6 52 10 90 4 38 9 80
11 94 24 207 24 787 -1 905 -2 11 -7 47 -10 80 -3 33 -7 71 -9 85 -2 14 -7 48
-11 75 -20 158 -87 411 -146 559 -44 108 -150 325 -180 367 -10 15 -19 30 -19
34 0 11 -135 208 -194 285 -169 217 -411 440 -636 585 -275 177 -631 310 -947
354 -210 30 -224 30 -1208 36 -3319 18 -4737 34 -5693 61 -163 4 -183 3 -189
-12z"/>
</g>
</svg>
