<?xml version="1.0" encoding="utf-8"?>
<!-- Generator: Adobe Illustrator 22.0.1, SVG Export Plug-In . SVG Version: 6.00 Build 0)  -->
<svg version="1.1" id="Layer_1" xmlns="http://www.w3.org/2000/svg" xmlns:xlink="http://www.w3.org/1999/xlink" x="0px" y="0px"
	 viewBox="0 0 100 100" style="enable-background:new 0 0 100 100;" xml:space="preserve">
<style type="text/css">
	.st0{fill:#FFFFFF;}
</style>
<g>
	<g>
		<path class="st0" d="M94.5,5.5C90.8,1.8,86.4,0,81.3,0H18.8C13.6,0,9.2,1.8,5.5,5.5C1.8,9.2,0,13.6,0,18.7v62.5
			c0,5.2,1.8,9.6,5.5,13.2c3.7,3.7,8.1,5.5,13.2,5.5h62.5c5.2,0,9.6-1.8,13.2-5.5c3.7-3.7,5.5-8.1,5.5-13.2V18.7
			C100,13.6,98.2,9.2,94.5,5.5z M59.1,14.5h4.4v17.7c0,1,0,1.6,0.1,1.7c0,0.7,0.4,1,1,1c0.9,0,1.8-0.7,2.7-2V14.5h4.4v24.1h-4.4h0
			v-2.6c-1.8,2-3.4,2.9-5,2.9c-1.4,0-2.3-0.6-2.8-1.8c-0.3-0.8-0.4-2-0.4-3.6V14.5L59.1,14.5z M42.6,22.3c0-2.5,0.5-4.4,1.4-5.7
			c1.2-1.6,2.9-2.5,5.1-2.5c2.1,0,3.8,0.8,5.1,2.5c0.9,1.3,1.4,3.1,1.4,5.7v8.5c0,2.6-0.5,4.5-1.4,5.7c-1.3,1.7-3,2.5-5.1,2.5
			c-2.2,0-3.9-0.8-5.1-2.5c-0.9-1.3-1.4-3.1-1.4-5.7V22.3z M30.9,6.2l3.5,12.7l3.3-12.7h4.9l-5.9,19.3h0v13.1h-4.8V25.5
			c-0.5-2.4-1.5-5.8-3-10.3c-1-3-1.5-4.5-1.5-4.5l-1.6-4.5L30.9,6.2L30.9,6.2z M84.5,84.8c-0.4,1.9-1.4,3.4-2.8,4.8
			c-1.4,1.3-3,2.1-4.9,2.3c-5.9,0.7-14.9,1-26.8,1c-11.9,0-20.9-0.3-26.8-1c-1.9-0.2-3.5-1-4.9-2.3c-1.4-1.3-2.3-2.9-2.8-4.8
			c-0.9-3.6-1.3-9.3-1.3-16.9c0-7.5,0.4-13.2,1.3-16.9c0.4-1.9,1.4-3.5,2.8-4.8c1.4-1.3,3.1-2,5-2.2c5.9-0.7,14.8-1,26.8-1
			c12,0,20.9,0.3,26.8,1c1.9,0.2,3.5,1,4.9,2.2c1.4,1.3,2.4,2.9,2.8,4.8c0.8,3.6,1.2,9.2,1.2,16.9C85.8,75.5,85.4,81.1,84.5,84.8z"
			/>
		<polygon class="st0" points="19.5,55.8 24.6,55.8 24.6,83.3 29.4,83.3 29.4,55.8 34.6,55.8 34.6,51.2 19.5,51.2 		"/>
		<path class="st0" d="M43.4,77.7c-1,1.3-1.9,2-2.7,2c-0.6,0-0.9-0.3-1-1c0-0.1-0.1-0.7-0.1-1.7V59.4h-4.3v18.9
			c0,1.6,0.1,2.8,0.4,3.5c0.4,1.2,1.3,1.8,2.7,1.8c1.6,0,3.3-1,4.9-2.9v2.6h4.4V59.4h-4.4L43.4,77.7L43.4,77.7z"/>
		<path class="st0" d="M60.2,59.1c-1.6,0-3,0.9-4.4,2.6V51.2h-4.4v32.1h4.4V81c1.4,1.8,2.9,2.7,4.4,2.7c1.8,0,2.9-0.9,3.4-2.7
			c0.3-0.9,0.5-2.5,0.5-4.8v-9.5c0-2.3-0.2-3.9-0.5-4.8C63.2,60,62,59.1,60.2,59.1z M59.8,76.5c0,2.1-0.6,3.2-1.9,3.2
			c-0.7,0-1.5-0.3-2.1-1V64.1c0.7-0.7,1.4-1,2.1-1c1.3,0,1.9,1.1,1.9,3.3V76.5z"/>
		<path class="st0" d="M76,76.5c0,0.5,0,0.8,0,1.1c0,0.3,0,0.4,0,0.5c-0.3,1.1-0.9,1.7-2,1.7c-1.5,0-2.2-1.1-2.2-3.3v-4.2h8.7v-4.9
			c0-2.5-0.5-4.4-1.4-5.6c-1.2-1.6-2.9-2.5-5.1-2.5c-2.2,0-3.9,0.8-5.2,2.5c-0.9,1.2-1.3,3-1.3,5.6v8.4c0,2.6,0.5,4.4,1.4,5.6
			c1.3,1.6,3,2.5,5.3,2.5c2.3,0,4-0.9,5.2-2.6c0.5-0.8,0.8-1.6,1-2.6c0.1-0.6,0.1-1.5,0.1-2.8v-0.6v0H76L76,76.5L76,76.5L76,76.5z
			 M71.8,66.3c0-2.2,0.7-3.3,2.1-3.3c1.4,0,2.1,1.1,2.1,3.3v2.2h-4.3V66.3z"/>
		<path class="st0" d="M49,34.9c1.4,0,2.1-1.1,2.1-3.3V21.4c0-2.3-0.7-3.4-2.1-3.4c-1.4,0-2.1,1.1-2.1,3.4v10.2
			C46.9,33.8,47.6,34.9,49,34.9z"/>
	</g>
</g>
</svg>
