<svg xmlns="http://www.w3.org/2000/svg" xmlns:xlink="http://www.w3.org/1999/xlink" viewBox="0 0 190.278 86.151"><defs><style>.a{fill:none;}.b{clip-path:url(#a);}.c{fill:#fff;}</style><clipPath id="a"><path class="a" d="M26-10.4H216.278V-96.546H26Z" transform="translate(0 106)"/></clipPath></defs><g class="b" transform="translate(-26 -9.454)"><path class="c" d="M0,0C-1.468-2.313-11.823-24.428-11.632-25.266a19.47,19.47,0,0,0,5.8-3.787c3.377-3.384,3.306-10.886,1.991-14.054a10.385,10.385,0,0,0-9.4-6.715c-1.252-.035-19.878-.052-27.737-.293l-.046.293c.541,8.816-1.052,36-1.863,41.729h13.331c-.713-2.424.43-31.427,1.284-32.415.4-.384,7.976-.909,10.689.645,1.8,1.029,2.368,4,1.568,5.564-.543,1.061-2.516,4.231-11.195,2.8-.221-.036-.435.048-.247.494,1.319,3.136,2.321,6.468,3.629,9.628.321,1.062,10.9,28.021,10.9,28.021L5.5,6.67A25.408,25.408,0,0,1,0,0" transform="translate(71.784 73.949)"/><path class="c" d="M0,0C-1.506.3-13.448,2.3-16.27-2.814c-1.492-2.706-.554-7.275.3-8.962.674-1.336,3.75-7.588,16.689-4.122l-.641-7.11C-13.6-25.894-19.644-21.294-21.109-20a16.7,16.7,0,0,0-5.53,11.875C-26.269,4-17.158,7.905-11.826,8.073A94.636,94.636,0,0,0-1.037,7.235S.023.187,0,0" transform="translate(176.763 58.431)"/><path class="c" d="M0,0C-.543.963-6.913,16.887-6.913,16.887-7.258,16.146-11.467.96-11.752,0H-24.911c-.119,4.187-2.6,27.657-2.79,30.415h8.024c-.018-2.684,1.531-19.7,1.753-20.935,0-.074,5.911,20.27,6.172,20.911l7.333.024L4.493,9.332c.19,2.459-.344,17.965-.642,21.059l8.691-.025c.024-2.236.311-26.779.691-30.366H0" transform="translate(108.82 35.225)"/><path class="c" d="M0,0C-.339-.012-.278-.169-.279-.363l.223-4.608c.02-.231.2-.271.371-.271l12.316.015c.254-.012.4-.121.411-.437l.233-6.29c-.027-.278-.345-.3-.518-.275L.581-12.2c-.23.022-.22-.194-.242-.317-.01-.059.187-4.273.181-4.4-.012-.254.17-.266.315-.266l15.453-.049v-6.592H-8.845c-.025.84-.815,21.183-1.308,30.268a.288.288,0,0,0,.271.222l24.776.01L15.4-.058Z" transform="translate(134.354 59.057)"/><path class="c" d="M0,0C-.158,6.34-1.555,29.033-1.8,30.416H8.024C7.963,28.552,9.556,2.44,9.678,0Z" transform="translate(70.231 35.25)"/><path class="c" d="M0,0C-4.981,0-9.181-3.449-9.019-9.131c.144-5.041,3.24-9.131,9.019-9.131,4.981,0,8.836,3.41,9.019,9.131C9.214-3,4.981,0,0,0M-.2-25.066c-12.35,0-18.243,7.148-18.243,15.935S-14.528,6.347-.2,6.8C9.858,7.125,17.842,1.873,18.046-9.131,18.261-20.685,9.863-25.066-.2-25.066" transform="translate(195.564 59.88)"/></g></svg>