<?xml version="1.0" encoding="utf-8"?>
<!-- Generator: Adobe Illustrator 23.0.4, SVG Export Plug-In . SVG Version: 6.00 Build 0)  -->
<svg version="1.1" xmlns="http://www.w3.org/2000/svg" xmlns:xlink="http://www.w3.org/1999/xlink" x="0px" y="0px"
	 viewBox="0 0 887.4 311.8" style="enable-background:new 0 0 887.4 311.8;" xml:space="preserve">
<style type="text/css">
	.st0{fill:#7AB51D;}
	.st1{fill:none;}
</style>
<g id="Symbol">
	<g>
		<path class="st0" d="M192,70.8c39.2,17,66.7,58.1,66.7,98.8c0,31.3-15.9,59.3-41.1,78.3c-0.2,0.1-0.4,0.3-0.5,0.4
			c-20.8,15.6-47.9,25-77.6,25c-30.2,0-59.9-8-80.9-24.2c31.3,30.7,80.3,48.5,132.6,48.5c87.3,0,159.2-54.2,169.6-124.2
			c0.4-2.6,0.7-5.1,0.9-7.7c0.3-2.7,0.4-5.5,0.4-8.2c0-0.3,0-0.5,0-0.8c-0.5-52.6-49.6-98.6-110.1-98.6
			C230.1,58.1,209.2,61.2,192,70.8z"/>
		<path class="st0" d="M192,240.9c-39.2-17-66.7-58-66.7-98.7c0-31.3,15.9-59.3,41.1-78.4c0.2-0.1,0.4-0.3,0.5-0.4
			c20.8-15.6,47.9-25,77.6-25c30.2,0,59.9,7.9,80.9,24c-31.3-30.7-80.3-48.3-132.6-48.3c-87.3,0-159.2,54.2-169.6,124.2
			c-0.4,2.6-0.7,5.1-0.9,7.7c-0.3,2.7-0.4,5.5-0.4,8.2c0,0.3,0,0.5,0,0.8c0.5,52.6,49.6,98.6,110.1,98.6
			C154,253.7,174.9,250.4,192,240.9z"/>
	</g>
</g>
<g id="Type">
	<g>
		<path class="st0" d="M418.8,24.2h23.9c11.3,0,18.2,7.2,18.2,16c0,7.1-3.1,12.2-11,14.9l0.1,0.2c7.3,1.8,12.5,8.3,12.5,16.4
			c0,9.7-5.9,17.5-23.6,17.5h-20.2V24.2z M426,52.1h12.6c10.9,0,15.1-5.6,15.1-11.1c0-7.3-4-10.7-12.2-10.7H426V52.1z M426,83.1
			h13.5c10.6,0,15.8-3.6,15.8-11.7c0-8.3-6.7-13.1-16.9-13.1H426V83.1z"/>
		<path class="st0" d="M501.3,89.2v-6.3h-0.2c-3.7,4.1-8.5,7.2-13.9,7.2c-6.9,0-13.5-3.6-13.5-13.7v-34h6.5v33.8
			c0,6.2,3,8.3,7.6,8.3c4.9,0,10.4-4,13.4-7.1v-35h6.5v46.8H501.3z"/>
		<path class="st0" d="M519.6,42.4h6.5v9.3h0.2c3.6-6.4,7.5-10,15.2-10v6.5c-8.1,0.2-12.3,5.5-15.4,15.1v25.9h-6.5V42.4z"/>
		<path class="st0" d="M583.3,79.2c-3.1,5.3-7.4,10.9-18,10.9c-10.4,0-20.3-7.2-20.3-24.3c0-15.1,7.6-24.3,19.1-24.3
			c9.7,0,17.8,6.3,17.8,21.2V67h-30.4c0,10.3,6.1,17.5,13.9,17.5c5.8,0,10.3-3.1,13-7.9L583.3,79.2z M575.4,61.5
			c0-8.6-4.1-14.4-11.2-14.4c-7.8,0-12.1,5.8-12.6,14.4H575.4z"/>
		<path class="st0" d="M590.9,51.4c3-5.4,8.7-9.9,17.5-9.9c7.9,0,16.2,3.8,16.2,14v23.6c0,5.1,0.5,7.6,1.1,10.1h-6.7l-0.7-6.5
			c-3.2,3.6-8.5,7.4-15.5,7.4c-7.2,0-13.3-4.3-13.3-12.9c0-10.3,7.8-15.4,28.6-19.1v-2.5c0-6.2-4.1-8.5-9.6-8.5
			c-7.2,0-10.7,4.1-12,7.3L590.9,51.4z M618.2,63.9c-14.8,2.6-22.1,6.9-22.1,13.4c0,4.3,4.1,7.2,7.7,7.2c4.7,0,10.6-3.4,14.4-7.7
			V63.9z"/>
		<path class="st0" d="M663.6,89.2v-6.3h-0.2c-3.7,4.1-8.5,7.2-13.9,7.2c-6.9,0-13.5-3.6-13.5-13.7v-34h6.5v33.8
			c0,6.2,3,8.3,7.7,8.3c4.9,0,10.4-4,13.4-7.1v-35h6.5v46.8H663.6z"/>
		<path class="st0" d="M730.2,90.1c-12.8,0-19.2-10.8-19.2-24.3c0-13.5,6.4-24.3,19.2-24.3s19.2,10.8,19.2,24.3
			C749.3,79.3,742.9,90.1,730.2,90.1z M730.2,47.1c-7.7,0-12.7,6.7-12.7,18.7s4.9,18.7,12.7,18.7c7.7,0,12.7-6.7,12.7-18.7
			S737.9,47.1,730.2,47.1z"/>
		<path class="st0" d="M760.5,89.2V48h-7.9v-5.6h7.9v-5.3c0-11.1,3.8-13.8,11.4-13.8c1.9,0,3.9,0.3,5.8,0.4v5.8
			c-1.5-0.2-3.2-0.6-4.7-0.6c-4.4,0-6,1.4-6,6.7v6.8h10.2V48H767v41.2H760.5z"/>
	</g>
	<path class="st0" d="M426,114.2v65h-7.2v-65H426z"/>
	<path class="st0" d="M447.3,132.4v6.3h0.2c3.7-4.1,8.5-7.2,13.9-7.2c6.9,0,13.5,3.6,13.5,13.7v34h-6.5v-33.8c0-6.2-3-8.3-7.7-8.3
		c-4.9,0-10.4,4-13.4,7.1v35h-6.5v-46.8H447.3z"/>
	<path class="st0" d="M489.4,132.4V117h6.5v15.4h10.8v5.6h-10.8v33.3c0,2.2,1.5,3.2,5.3,3.2c2.2,0,4-0.2,5.8-0.5v5.3
		c-1.2,0.4-3.8,0.7-7.6,0.7c-7,0-10-1.8-10-7.7V138h-7.6v-5.6H489.4z"/>
	<path class="st0" d="M548.9,169.2c-3.1,5.3-7.4,10.9-18,10.9c-10.4,0-20.3-7.2-20.3-24.3c0-15.1,7.6-24.3,19.1-24.3
		c9.7,0,17.8,6.3,17.8,21.2v4.3H517c0,10.3,6.1,17.5,13.9,17.5c5.8,0,10.3-3.1,13-7.9L548.9,169.2z M541,151.5
		c0-8.6-4.1-14.4-11.2-14.4c-7.8,0-12.1,5.8-12.6,14.4H541z"/>
	<path class="st0" d="M556.9,132.4h6.5v9.3h0.2c3.6-6.4,7.5-10,15.2-10v6.5c-8.1,0.2-12.3,5.5-15.4,15.1v25.9h-6.5V132.4z"/>
	<path class="st0" d="M592.8,132.4v6.3h0.2c3.7-4.1,8.6-7.2,13.9-7.2c6.9,0,13.5,3.6,13.5,13.7v34h-6.5v-33.8c0-6.2-3-8.3-7.7-8.3
		c-4.9,0-10.4,4-13.4,7.1v35h-6.5v-46.8H592.8z"/>
	<path class="st0" d="M630.8,141.4c3-5.4,8.7-9.9,17.5-9.9c7.9,0,16.2,3.8,16.2,14v23.6c0,5.1,0.5,7.6,1.1,10.1H659l-0.7-6.5
		c-3.2,3.6-8.5,7.4-15.5,7.4c-7.2,0-13.3-4.3-13.3-12.9c0-10.3,7.8-15.4,28.6-19.1v-2.5c0-6.2-4.1-8.5-9.6-8.5
		c-7.2,0-10.7,4.1-12,7.3L630.8,141.4z M658.1,153.9c-14.8,2.6-22.1,6.9-22.1,13.4c0,4.3,4.1,7.2,7.7,7.2c4.7,0,10.6-3.4,14.4-7.7
		V153.9z"/>
	<path class="st0" d="M678.1,132.4V117h6.5v15.4h10.8v5.6h-10.8v33.3c0,2.2,1.5,3.2,5.3,3.2c2.2,0,4-0.2,5.8-0.5v5.3
		c-1.2,0.4-3.8,0.7-7.6,0.7c-7,0-10-1.8-10-7.7V138h-7.6v-5.6H678.1z"/>
	<path class="st0" d="M710.9,113.3v7.7h-6.5v-7.7H710.9z M704.4,132.4h6.5v46.8h-6.5V132.4z"/>
	<path class="st0" d="M740,180.1c-12.8,0-19.2-10.8-19.2-24.3c0-13.5,6.4-24.3,19.2-24.3c12.8,0,19.2,10.8,19.2,24.3
		C759.1,169.3,752.7,180.1,740,180.1z M740,137.1c-7.7,0-12.7,6.7-12.7,18.7s5,18.7,12.7,18.7c7.7,0,12.7-6.7,12.7-18.7
		S747.7,137.1,740,137.1z"/>
	<path class="st0" d="M775,132.4v6.3h0.2c3.7-4.1,8.5-7.2,13.9-7.2c6.9,0,13.5,3.6,13.5,13.7v34h-6.5v-33.8c0-6.2-3-8.3-7.7-8.3
		c-4.9,0-10.4,4-13.4,7.1v35h-6.5v-46.8H775z"/>
	<path class="st0" d="M813,141.4c3-5.4,8.7-9.9,17.5-9.9c7.9,0,16.2,3.8,16.2,14v23.6c0,5.1,0.4,7.6,1.1,10.1h-6.7l-0.7-6.5
		c-3.2,3.6-8.5,7.4-15.5,7.4c-7.2,0-13.3-4.3-13.3-12.9c0-10.3,7.8-15.4,28.6-19.1v-2.5c0-6.2-4-8.5-9.6-8.5c-7.2,0-10.7,4.1-12,7.3
		L813,141.4z M840.2,153.9c-14.8,2.6-22.1,6.9-22.1,13.4c0,4.3,4.1,7.2,7.7,7.2c4.7,0,10.6-3.4,14.4-7.7V153.9z"/>
	<path class="st0" d="M865.5,114.2v65H859v-65H865.5z"/>
	<g>
		<path class="st0" d="M418.8,269.2v-65h20.9c14,0,21.7,6.3,21.7,17.1c0,9.2-5.3,14.4-13,16.9l13.8,31h-7.8l-13.1-29.5H426v29.5
			H418.8z M426,233.5h13c9.9,0,15.1-3.7,15.1-11.9c0-8.7-5.9-11.3-15.2-11.3h-13V233.5z"/>
		<path class="st0" d="M507.4,259.2c-3.1,5.3-7.4,10.9-18,10.9c-10.4,0-20.3-7.2-20.3-24.3c0-15.1,7.6-24.3,19.1-24.3
			c9.7,0,17.8,6.3,17.8,21.2v4.3h-30.4c0,10.3,6.1,17.5,13.9,17.5c5.8,0,10.3-3.1,13-7.9L507.4,259.2z M499.4,241.5
			c0-8.6-4.1-14.4-11.2-14.4c-7.8,0-12.1,5.8-12.6,14.4H499.4z"/>
		<path class="st0" d="M543.1,236.3c-1.8-5.7-5.5-9.3-11.1-9.3c-8,0-12.7,6.8-12.7,18.7c0,11.9,4.7,18.7,12.7,18.7
			c5.9,0,9.3-2,12.9-8.6l5.2,2.3c-4.7,7.9-8.8,11.9-18.1,11.9c-11.7,0-19.2-9.2-19.2-24.3c0-15.1,7.5-24.3,19.2-24.3
			c9.6,0,14.1,5.4,17.1,12.7L543.1,236.3z"/>
		<path class="st0" d="M590.7,222.4l-16.5,50.9c-3.4,10.4-9.6,13.1-15.7,13.1c-2.2,0-3.4-0.4-4.7-0.5v-5.3c0.9,0.1,2.1,0.3,3.5,0.3
			c4,0,10-0.9,12.2-11.2l-16.3-47.3h6.8l12.6,35.7h0.2l11-35.7H590.7z"/>
		<path class="st0" d="M623.6,236.3c-1.8-5.7-5.5-9.3-11.1-9.3c-8,0-12.7,6.8-12.7,18.7c0,11.9,4.7,18.7,12.7,18.7
			c5.9,0,9.3-2,12.9-8.6l5.2,2.3c-4.7,7.9-8.8,11.9-18.1,11.9c-11.7,0-19.2-9.2-19.2-24.3c0-15.1,7.5-24.3,19.2-24.3
			c9.6,0,14.1,5.4,17.1,12.7L623.6,236.3z"/>
		<path class="st0" d="M646.3,204.2v65h-6.5v-65H646.3z"/>
		<path class="st0" d="M666.4,203.3v7.7h-6.5v-7.7H666.4z M659.9,222.4h6.5v46.8h-6.5V222.4z"/>
		<path class="st0" d="M685.9,222.4v6.3h0.2c3.7-4.1,8.6-7.2,13.9-7.2c6.9,0,13.5,3.6,13.5,13.7v34H707v-33.8c0-6.2-3-8.3-7.7-8.3
			c-4.9,0-10.4,4-13.4,7.1v35h-6.5v-46.8H685.9z"/>
		<path class="st0" d="M762.7,227.1c-2.7,0-5.6,0.5-7.2,1.3c1.4,1.6,3.2,5.2,3.2,9.5c0,9.3-7.6,16.4-17.1,16.4
			c-3.8,0-5.8-0.5-8.3-1.3c-2.5,0.7-3.7,2.2-3.7,4.3c0,2.2,1.5,3.4,3.9,3.4c22.1,0,29.2,4,29.2,13.1c0,6.8-6.8,12.6-21.3,12.6
			c-13.1,0-20.2-3.6-20.2-11.3c0-4.7,2.9-6.9,7.9-9.5c-3.6-1.1-5.8-3.9-5.8-6.7c0-4,2.7-5.8,6.3-8c-4.4-3.3-6.4-7.9-6.4-13
			c0-9.9,7.7-16.4,17.7-16.4c5,0,8.5,1.1,11.6,3.2c2.8-2,6.6-3.8,10.1-4.1V227.1z M740.5,267.2c-10.2,0-13,4.5-13,7.8
			c0,3.5,2.2,5.8,15.1,5.8c7.7,0,14-2.2,14.1-6.7C756.6,269.5,751.9,267.2,740.5,267.2z M740.8,227.1c-7.4,0-11.3,4.7-11.3,10.8
			c0,6.2,4.9,10.8,12.1,10.8c7.4,0,11.2-4.9,11.2-10.4C752.6,231.4,748.7,227.1,740.8,227.1z"/>
	</g>
	<rect class="st1" width="887.4" height="311.8"/>
</g>
</svg>
