<?xml version="1.0" encoding="utf-8"?>
<!-- Generator: Adobe Illustrator 23.0.4, SVG Export Plug-In . SVG Version: 6.00 Build 0)  -->
<svg version="1.1" id="Layer_1" xmlns="http://www.w3.org/2000/svg" xmlns:xlink="http://www.w3.org/1999/xlink" x="0px" y="0px"
	 viewBox="0 0 630 88" style="enable-background:new 0 0 630 88;" xml:space="preserve">
<style type="text/css">
	.st0{fill:#009964;}
</style>
<path d="M37.9,22.8c0-0.2,0-0.4-0.1-0.6c0,0,0,0,0,0c0.5,0.2,1.3-0.1,1.6-0.7c0.3-0.6,0.7-1.4,0.9-1.5c0.1-0.1,0.7,0.3,0.4,1.8
	c-0.1,0.3-0.2,0.6-0.3,0.9c-0.4-0.5-1.2-0.8-1.7-0.5c-0.2,0.2-0.4,0.4-0.5,0.6C38.2,22.9,38.1,22.8,37.9,22.8z M35.6,22.2
	c0.2-0.4,0.5-0.6,0.9-0.8c0-0.1,0-0.1-0.1-0.2c0-0.4,0.5-1.5,1-2.1c0.6-0.6,2.2-1.8,2.2-2.8c0-2-0.2-4.4-0.2-4.4l-2.3-0.1
	c0,0,0.3,3.5,0.1,4.3c-0.1,0.6-1.3,1.2-2,2.4C35.1,19,33.9,22,34.6,23c0.3,0.4,0.4,0.6,0.7,0.8C35.3,23.2,35.4,22.6,35.6,22.2z
	 M59.2,48.5c-1.2-3.6-13.5-5.5-18.6-5.4c-4.1,0-8,0.3-10.6,0.7c-2.6,0.4-6.6,1.8-8.2,2.9c-1.6,1.1-1.2,1.9-0.1,2.7
	c0.8,0.6,2,0.4,3.3-0.2c2.6-1.2,3-1.5,2.7-2.1c-0.5-0.9-1.7,0.4-4.5,1.1c-0.5,0.1-1.2,0,0.1-0.8c3.2-1.9,11.4-3.2,19.9-2.8
	c6.1,0.3,13.7,2.5,14.5,3.9c0.6,1-0.5,1.1-0.9,1.2c-0.4,0.1-0.6,0.4-0.5,0.9c0.1,0.5,1.1,0.4,1.9-0.1C59.2,50.1,59.6,49.5,59.2,48.5
	z M28.9,56.7c0-0.3,0.3-0.5,0.5-0.7c0.3-0.2,0.7-0.5,1-0.6c0.2-0.1,0.6,0.5,0.9,0.5c0.3,0,0.9-0.5,1.2-0.9c0.3-0.5,0.7-2.8,1-3.7
	c0.3-0.9,1.8-5.3,1.3-5.4c-0.5,0-4.4,0.1-5,0.6c-0.2,0.1-1.2,4.1-1.5,5.1c-0.3,1-1.8,5.9-1.5,6.3c0.3,0.3,0.6,0.4,0.9,0.5
	c0.3,0.1,1.1,0.3,1.3,0.2c0.2-0.2,0.5-0.9,0.3-1.2C29,57.2,28.9,57.1,28.9,56.7z M27.4,51.2c0.2-0.3,0.9-2.5,0.7-2.8
	c-0.3-0.5-5.1,3.5-5.2,3.7c-0.1,0.3,0.8,1.5,1.1,1.5C24.4,53.6,27.2,51.5,27.4,51.2z M33.4,54.9c0,0.3,1,2.1,1.3,2.2
	c0.2,0.1,6.5-3.7,8-4.6c1.6-0.9,8.7-4.8,8.5-5.2c-0.2-0.4-0.9-0.9-1.5-0.8c-0.6,0.1-8.4,4.1-8.8,4.3C40.6,51,33.5,54.5,33.4,54.9z
	 M53.1,48.2c0-0.2-0.3-0.7-0.6-0.7c-0.2,0-7.8,4.4-9.3,5.3c-1.6,0.9-10,5.8-10.1,6.2c-0.1,0.2,0.4,0.7,0.6,0.7
	c0.2,0,9.3-5.6,9.8-5.9C44,53.6,53.1,48.3,53.1,48.2z M51.3,50.1c-0.5,0.2-4.6,2.4-4.9,2.8c-0.1,0.2,0.3,0.9,0.5,0.9
	c0.5,0.1,1.7-0.4,2.3-0.7c0.6-0.3,1.8-1.3,1.9-1.5C51.3,51.4,51.7,49.9,51.3,50.1z M53.3,51.9c-0.1-0.2-0.9-0.5-1.1-0.5
	c-0.2,0-2,1.9-3.6,2.5c-1.6,0.6-3.5-0.1-4-0.1c-0.5,0.1-1.7,1-1.5,1.2c0.2,0.2,2.7,1.7,5.5,0.5C51.5,54.3,53.4,52.1,53.3,51.9z
	 M48.2,56.2c-0.1,0-0.6,0-0.7,0.2c-0.2,0.2-0.1,1.4,0.4,2.1c0.5,0.7,2-0.4,2-0.6c0-0.2-0.8-1.7-0.9-1.9
	C48.8,55.9,48.3,56.2,48.2,56.2z M41.2,55.7c-0.4,0.1-4,5.9-3.9,6.3c0.1,0.4,1.2,1,1.4,1c0.2,0,0.7-0.9,0.9-1
	c0.2-0.1,1.1,0.5,1.4,0.5c0.2,0,3.3-5.6,3.1-5.9C43.8,56.2,41.7,55.6,41.2,55.7z M56.3,52.7c-0.3,0-0.9,1.3-1.3,1.4
	c-0.4,0-1.4-1-1.8-0.9c-0.3,0-1.4,1.1-1.4,1.5c0,0.4,3.2,1.8,3.6,1.8c0.4,0,2.4-2.3,2.3-2.7C57.7,53.4,56.6,52.7,56.3,52.7z
	 M52.6,50.8c0.5,0.3,2.9,0.8,3,0.5c0.2-0.3,0.1-1.4,0.3-1.6c0.2-0.2,1.4-0.5,0.8-1.1c-0.2-0.2-1.7-0.8-2-0.7
	c-0.3,0.1-1.1,1.4-1.1,1.1c-0.1-0.2-0.3-0.5-0.5-0.3C53,48.9,52.2,50.5,52.6,50.8z M44.9,47.2c-0.4,0.2-1.5,0.9-1.2,0.3
	C44,47,43.4,47,43.1,47c-0.7,0-0.7,1.8-0.6,2.3c0.1,0.3,4.3-2.1,4.6-2.3c0.3-0.2,0.5-0.5,0.2-0.7c-0.2-0.2-2-1-2.2-0.6
	C45.1,46.1,45.3,47,44.9,47.2z M40.7,45.5c-1.4,0.6-4.8,7.1-3.1,6.2c1.7-0.9,2.6-1.2,3.1-1.7c0.5-0.6,1-3,1.4-3.3
	c0.3-0.2,1.8,0.2,2.2,0c0.4-0.2,0.3-0.9,0.1-1.1C44.3,45.4,41.2,45.3,40.7,45.5z M37.8,45.6c-0.2,0-0.6,0.2-0.5,0.5
	c0,0.2,0.4,0.6,0.5,0.6c0.2,0,0.5-0.2,0.5-0.3C38.3,46.2,38,45.6,37.8,45.6z M36.7,46.1c-0.1,0-0.5,0.2-0.4,0.4
	c0,0.2,0.7,0.8,0.9,0.8c0.2,0,0.4-0.3,0.3-0.5C37.4,46.6,36.9,46.2,36.7,46.1z M35.7,47.3c0,0.2,0.7,1.1,0.9,1.1
	c0.2,0,0.5-0.3,0.4-0.5c-0.1-0.2-0.8-0.8-1-0.9C35.8,46.9,35.7,47.1,35.7,47.3z M35.1,48.5c0,0.2,0.9,0.6,1,0.6c0.1,0,0-0.5,0-0.5
	S35.5,48,35.3,48C35.1,47.9,35.1,48.3,35.1,48.5z M34.9,49.5c0.1,0.2,0.9,0.8,1.1,0.8c0.2,0,0.5-0.5,0.4-0.6c-0.1-0.1-1-0.7-1.3-0.7
	C34.9,49,34.8,49.3,34.9,49.5z M34.6,50.9c0.1,0.2,1.1,0.7,1.3,0.7c0.2,0,0.3-0.4,0.2-0.5c-0.1-0.2-1-0.8-1.2-0.7
	C34.7,50.4,34.6,50.7,34.6,50.9z M32.1,58.2c0.1-0.2,1.4-0.9,1.4-1c0-0.2-0.5-1.4-0.8-1.5c-0.2-0.1-1.3,0.9-1.5,0.9
	c-0.2-0.1-0.7-0.7-0.9-0.7c-0.2,0-1,0.6-0.9,0.8c0.1,0.2,1.8,3.1,2.1,3c0.2-0.1,0.7-0.4,0.8-0.6C32.4,58.9,32,58.4,32.1,58.2z
	 M21.9,44.4c0-0.3,0-0.5,0-0.5s1-0.2,0.9,0c0,0.1,0,0.2-0.1,0.3c0.2-0.1,0.4-0.2,0.7-0.3c0-0.3,0-0.6,0-0.6l1.6-0.6
	c0,0,0,0.3-0.1,0.6c0.3-0.1,0.5-0.2,0.8-0.3c0-0.2,0-0.5,0-0.5l1.4-0.6c0,0,0,0.2,0,0.5c0.3-0.1,0.6-0.2,0.8-0.3
	c0-0.4,0.1-0.7,0.1-0.7l0.4-0.1c-0.1,0-0.3,0-0.4,0c-0.1,0-0.2-0.1-0.2-0.3c0-0.1,0-0.1,0-0.1c0,0,0-0.1,0.1-0.1
	c-2.7,0.8-6.1,2.2-6.3,2.7C21.7,44.1,21.7,44.4,21.9,44.4z M28.9,40.7c0.2,0,0.4,0,0.6,0c0.3,0,0.5,0,0.8,0c0.1,0,0.2,0,0.3-0.1
	c0,0,0,0,0,0c0,0-0.1,0-0.1-0.1c0-0.1-0.1-0.1-0.1-0.2c-0.2,0-0.4,0.1-0.6,0.1C29.6,40.5,29.2,40.6,28.9,40.7z M50,41.2
	C50,41.2,50.1,41.2,50,41.2c-0.3-0.2-0.7-0.3-1.3-0.4C49.1,41,49.6,41.1,50,41.2z M50,41.9C50,41.9,49.9,42,49.8,42c0,0-0.1,0-0.1,0
	c-0.3-0.1-0.6-0.1-0.9-0.2c0,0.1,0,0.2-0.1,0.3c0.5,0.1,0.9,0.3,1.3,0.4c0.1-0.4,0.1-0.7,0.1-0.7C50.2,41.8,50.1,41.8,50,41.9z
	 M51.8,42.4c0,0.1,0,0.3-0.1,0.6c0.3,0.1,0.5,0.2,0.8,0.3c0.1-0.3,0.2-0.6,0.2-0.6l1.5,0.7c0,0-0.1,0.3-0.2,0.5
	c0.3,0.1,0.6,0.3,0.8,0.4c0.1-0.2,0.3-0.4,0.3-0.4s1.1,0.3,1.1,0.6c0,0.1,0,0.3-0.2,0.4c0.1,0,0.2,0.1,0.2,0.1
	c0.4,0,0.6-0.7,0.5-0.9c-0.1-0.2-4.4-2.1-6.3-2.8c-0.1,0.1-0.3,0.3-0.4,0.4C50.3,41.7,51.7,42.2,51.8,42.4z M47.7,40.9
	c-0.1-0.1-0.1-0.3-0.2-0.5c-1.1-0.3-2.4-0.5-3.9-0.7c0,0,0,0,0,0.1c0.1,0.3-0.5,0.9-0.6,0.5c0-0.2-0.1-0.4-0.1-0.6
	c-1-0.1-2-0.2-3.1-0.2c-0.3,0-0.5,0-0.8,0c0.1,0.1,0.2,0.3,0.2,0.4c0.1,0.1,0,0.3-0.2,0.5c0,0.1,0,0.2,0,0.3c0,0,0.1,0,0.1,0
	c0.4,0,0.7,0,1.1,0c0-0.3,0-0.6,0-0.6l2.3,0.2c0,0,0,0.2,0,0.5c0.5,0,1,0.1,1.4,0.1c0.1-0.3,0.1-0.5,0.1-0.5l1.9,0.3
	c0,0-0.1,0.2-0.1,0.6c0.4,0.1,0.9,0.2,1.4,0.3c0-0.2,0-0.4,0-0.4L47.7,40.9z M38.5,40.2c-0.1-0.2-0.3-0.4-0.4-0.6c0,0,0-0.1-0.1-0.1
	c-2,0.1-4.6,0.3-6.9,0.7c0.2,0.9-0.6,1.2-1.5,1.3c0,0.1,0,0.2,0,0.4c0.4-0.1,0.9-0.2,1.3-0.3c0-0.2,0.1-0.5,0.1-0.5l1.7-0.3
	c0,0,0,0.2,0,0.4c0.4-0.1,0.7-0.1,1.1-0.2c0-0.3,0-0.6,0-0.6l2-0.1c0,0,0,0.2-0.1,0.5c0.4,0,0.8-0.1,1.2-0.1c0-0.4,0.1-0.6,0.1-0.6
	L38.5,40.2z M21.9,43.9c0,0,0,0.2,0,0.5c0,0.3,0,0.7,0.1,0.7c0.1,0,0.4,0.2,0.5,0c0.1-0.1,0.2-0.6,0.3-1c0-0.1,0.1-0.3,0.1-0.3
	C22.9,43.7,21.9,43.9,21.9,43.9z M23.5,43.3c0,0-0.1,0.3,0,0.6c0,0.2,0.1,0.4,0.2,0.5c0.3,0.2,0.3,0.5,0.8,0.2
	c0.5-0.2,0.6-0.6,0.6-0.7c0-0.1,0-0.4,0.1-0.6c0-0.3,0.1-0.6,0.1-0.6L23.5,43.3z M26,42.5c0,0,0,0.2,0,0.5c0,0.2,0,0.5,0.1,0.6
	c0.1,0.2,0.4,0.5,0.7,0.4c0.3-0.1,0.5-0.5,0.6-0.8c0-0.1,0-0.5,0-0.7c0-0.3,0-0.5,0-0.5L26,42.5z M28.6,41.5l-0.4,0.1
	c0,0,0,0.3-0.1,0.7c0,0.4-0.1,0.9,0,1c0.1,0.3,0.4,0.4,0.7,0.3c0.3-0.1,0.5-0.4,0.6-0.6c0-0.1,0.1-0.7,0.2-1.1c0-0.1,0-0.3,0-0.4
	C29.3,41.5,28.9,41.5,28.6,41.5z M31,41.1c0,0-0.1,0.2-0.1,0.5c0,0.2-0.1,0.5,0,0.6c0.1,0.3,0,0.9,0.3,1c0.4,0.1,0.9,0,1.1-0.2
	c0.1-0.2,0.3-1.2,0.3-1.7c0-0.2,0-0.4,0-0.4L31,41.1z M33.9,40.4c0,0,0,0.3,0,0.6c0,0.6,0,1.3,0.1,1.5c0.2,0.2,0.2,0.3,0.7,0.3
	c0.5,0,0.8-0.2,0.9-0.3c0-0.1,0.2-1,0.3-1.6c0-0.3,0.1-0.5,0.1-0.5L33.9,40.4z M38.6,40.4c0,0,0-0.1-0.1-0.2L37,40.1
	c0,0,0,0.3-0.1,0.6c0,0.6-0.1,1.4,0,1.6c0.2,0.2,0.6,0.3,0.9,0.3c0.4,0,0.8,0,0.9-0.2c0.1-0.1,0.2-1.1,0.2-1.7c0-0.1,0-0.2,0-0.3
	C38.9,40.5,38.7,40.6,38.6,40.4z M40.2,40c0,0,0,0.3,0,0.6c0,0.6,0,1.3,0.1,1.5c0.2,0.3,0.4,0.4,0.9,0.4c0.6,0,0.9-0.1,1-0.3
	c0.1-0.1,0.2-1,0.2-1.6c0-0.3,0-0.5,0-0.5L40.2,40z M44,40.4c0,0-0.1,0.2-0.1,0.5c-0.1,0.5-0.3,1.3-0.2,1.5c0.2,0.3,1.2,0.5,1.5,0.4
	c0.2-0.1,0.4-1,0.6-1.6c0.1-0.3,0.1-0.6,0.1-0.6L44,40.4z M47.7,41C47.7,41,47.7,41,47.7,41l-0.6,0.2c0,0,0,0.2,0,0.4
	c0,0.3,0,0.6-0.1,0.8c0,0.4,0.1,0.5,0.3,0.7c0.2,0.2,0.7,0.3,1,0.1c0.2-0.1,0.4-0.7,0.5-1.2c0-0.1,0.1-0.2,0.1-0.3
	C48.4,41.6,48,41.3,47.7,41z M51.8,42.4c-0.1-0.2-1.5-0.7-1.6-0.7v0c0,0-0.1,0.3-0.1,0.7c-0.1,0.4-0.1,0.9,0,0.9
	c0.2,0.1,0.7,0.5,1,0.5c0.2,0,0.4-0.4,0.6-0.8C51.8,42.8,51.9,42.5,51.8,42.4z M52.7,42.8c0,0-0.1,0.3-0.2,0.6
	c-0.1,0.3-0.2,0.6-0.1,0.7c0.2,0.2,0.9,0.7,1.2,0.6c0.2-0.1,0.3-0.3,0.4-0.6c0.1-0.3,0.2-0.5,0.2-0.5L52.7,42.8z M56.4,44.6
	c0-0.3-1.1-0.6-1.1-0.6s-0.2,0.2-0.3,0.4c-0.1,0.2-0.2,0.4-0.1,0.5c0.2,0.2,0.6,0.5,0.9,0.5c0.2,0,0.4-0.2,0.5-0.4
	C56.3,44.8,56.4,44.7,56.4,44.6z M32.8,37.2c0.2-0.5,0.2-1.6-0.4-2c-0.1,0.3-0.2,0.5-0.3,0.8c0.2,0.3,0.3,0.9,0.2,1.1
	c0,0.4-0.7,0.6-1.1,0.6c-0.1,0.3-0.2,0.5-0.3,0.8C31.6,38.6,32.5,37.9,32.8,37.2z M30.5,36.2c0.1-0.5,0.7-0.5,1.1-0.5
	c0,0,0-0.1,0.1-0.1c-0.1,0.1,0-0.1,0.1-0.2c0-0.1,0.1-0.2,0.1-0.4c0,0,0-0.1,0-0.1c-0.7-0.1-1.5,0.2-1.8,0.9
	c-0.3,0.7-0.4,1.9,0.3,2.4c0.1-0.3,0.2-0.5,0.3-0.8C30.4,37.2,30.4,36.6,30.5,36.2z M32.5,32.8c-0.1-0.3-0.1-0.6-0.1-0.9
	c0-0.3,0.1-0.4,0.4-0.6c0.1,0,0.3-0.1,0.4-0.1c0,0,0,0,0-0.1c0.2-0.2,0.3-0.5,0.4-0.8c-0.3,0-0.6,0.2-0.8,0.3
	c-0.4,0.2-0.8,0.5-0.9,0.9c-0.2,0.6-0.3,1.8,0.3,2.2c0.1-0.3,0.2-0.5,0.2-0.8C32.5,32.9,32.5,32.9,32.5,32.8z M34.7,32.6
	c0.2-0.6,0.3-1.8-0.4-2.1c0,0,0,0,0,0c-0.1,0.3-0.2,0.5-0.4,0.7c0.4,0.1,0.3,1,0.3,1.3c-0.1,0.5-0.7,0.7-1.2,0.7
	c-0.1,0.3-0.1,0.5-0.2,0.8C33.6,34,34.4,33.3,34.7,32.6z M36.3,28.4c0.2-0.7,0.4-1.9-0.3-2.4c-0.1,0.2-0.2,0.4-0.3,0.7
	c0,0,0,0.1-0.1,0.1c0.4,0.3,0.3,0.8,0.3,1.3c-0.1,0.3-0.1,0.6-0.5,0.7c-0.1,0.1-0.4,0.1-0.6,0.2c-0.1,0.2-0.2,0.5-0.3,0.8
	c0.3,0,0.5-0.1,0.7-0.2C35.7,29.3,36.1,28.9,36.3,28.4z M34,27.5c0.1-0.5,0.6-0.8,1.1-0.9c0-0.1,0-0.2,0.1-0.2
	c0.1-0.2,0.2-0.3,0.3-0.5c-0.8,0-1.6,0.6-1.9,1.3c-0.3,0.7-0.3,1.9,0.4,2.4c0,0,0,0,0.1,0c0.1-0.3,0.2-0.5,0.3-0.8
	C33.9,28.6,33.9,27.9,34,27.5z M36.6,24.2C36.5,24.2,36.5,24.2,36.6,24.2c-0.1,0-0.1,0.1-0.1,0.2c-0.1,0.2-0.1,0.4-0.2,0.6
	c0.1,0,0.1,0,0.2,0C36.5,24.7,36.5,24.5,36.6,24.2z M36.2,24.1c-0.4-0.3-0.2-0.9-0.1-1.4c0.1-0.6,0.5-0.6,1-0.5
	c0.2,0,0.3,0.5,0.3,0.9c0,0,0,0,0,0c0.2-0.2,0.4-0.2,0.6-0.2c0-0.2,0-0.4-0.1-0.6c-0.1-0.4-0.2-0.7-0.5-0.8
	c-0.3-0.1-0.6-0.2-0.9-0.1c-0.4,0.1-0.7,0.4-0.9,0.8c-0.2,0.4-0.3,1-0.3,1.6c0,0.4,0.2,0.8,0.5,1.1c0.1-0.2,0.1-0.3,0.2-0.5
	C36,24.2,36.1,24.1,36.2,24.1z M37.9,23.7C37.9,23.7,37.8,23.7,37.9,23.7c-0.4-0.2-0.4,0-0.6,0.2c-0.2,0.2-0.3,0.6-0.2,0.9
	C37.4,24.5,37.7,24.1,37.9,23.7z M49,39.3c0.1,0.1,0.1,0.2,0.1,0.3c0.4,0.2,0.8,0.6,1.1,0.9c0.1,0.1,0.1,0.2,0.2,0.3
	c0.1,0.1,0.1,0.1,0.1,0.1c-0.1,0.1-0.2,0.2-0.4,0.3c0,0,0,0-0.1,0c-0.4-0.1-0.9-0.2-1.3-0.4c0,0,0,0-0.1,0c-0.2-0.1-0.3-0.3-0.5-0.5
	c-0.1-0.2,0-0.4,0.1-0.5c-0.1-0.1-0.2-0.3-0.3-0.4c-0.3,0.3-0.4,0.8-0.4,1.2c0,0.2,0.1,0.3,0.2,0.5c0,0,0,0,0,0
	c0.3,0.4,0.7,0.6,1.1,0.8c0.3,0.1,0.6,0.2,0.9,0.2c0,0,0.1,0,0.1,0c0.1,0,0.1,0,0.2-0.1c0.1,0,0.2-0.1,0.2-0.1v0
	c0.1-0.1,0.3-0.2,0.4-0.4c0.3-0.3,0.5-0.7,0.2-1.2c-0.4-0.6-1.4-1.5-2.2-1.4c-0.1,0-0.1,0-0.2,0.1C48.7,39,48.8,39.2,49,39.3z
	 M44.6,36.4c0.1,0.6,0.6,1,1,1.4c0.5,0.4,0.9,0.6,1.5,0.4c0,0,0,0,0.1,0c-0.1-0.2-0.3-0.4-0.4-0.7c-0.6-0.1-1-0.6-1.4-1
	c-0.3-0.3-0.4-0.7-0.2-1.1c0.1-0.1,0.1-0.2,0.2-0.3c-0.1-0.2-0.2-0.3-0.3-0.5C44.8,35.1,44.5,35.9,44.6,36.4z M46.2,34.6
	C46.2,34.6,46.2,34.6,46.2,34.6c0.6,0.1,1,0.8,1.2,1.2c0.2,0.3,0.3,1,0.1,1.4c0.1,0.2,0.2,0.3,0.3,0.5c0.4-0.6,0.5-1.3,0.4-1.9
	c-0.1-0.8-1.1-1.9-1.9-1.9c-0.2,0-0.3,0.1-0.5,0.2C45.9,34.2,46,34.4,46.2,34.6C46.2,34.6,46.2,34.6,46.2,34.6z M43.9,30.8
	C43.9,30.8,43.9,30.8,43.9,30.8c0.4,0.2,0.8,0.4,1,0.7c0.1,0.3,0.2,0.6,0.1,0.9c0,0,0,0,0,0c0.1,0.2,0.2,0.4,0.3,0.5
	c0.4-0.6,0.4-1.5,0.1-2c0,0,0,0,0,0c0,0,0,0,0,0c-0.3-0.6-1.2-1-1.9-1c0,0,0,0,0,0C43.7,30.2,43.8,30.5,43.9,30.8
	C43.9,30.8,43.9,30.8,43.9,30.8z M42.6,32.1c0.2,0.8,1.2,1.5,2,1.4c0,0,0.1,0,0.1,0c-0.1-0.2-0.3-0.5-0.5-0.7c0,0,0-0.1,0-0.1
	c-0.5-0.2-0.9-0.6-1-1c0-0.1-0.1-0.5,0-0.7c0-0.1-0.1-0.2-0.1-0.2c-0.1-0.1-0.1-0.2-0.2-0.3C42.5,30.9,42.5,31.6,42.6,32.1z
	 M41.7,26.9c0.2,0.1,0.4,0.3,0.6,0.5c0.1,0.2,0.3,0.7,0.3,1.1c0.1,0.2,0.2,0.3,0.4,0.5c0.4-0.6,0.3-1.5-0.1-2.1
	c-0.2-0.3-0.5-0.7-0.9-0.8c-0.2-0.1-0.4,0-0.6,0C41.5,26.4,41.6,26.6,41.7,26.9C41.7,26.9,41.7,26.9,41.7,26.9z M40.1,27.6
	c0.2,0.2,0.5,0.5,0.6,0.8c0.1,0.3,0,0.5-0.1,0.8c0.5,0.3,1.1,0.4,1.7,0.2c-0.1-0.2-0.3-0.4-0.5-0.7c-0.3,0-0.5-0.1-0.7-0.2
	c-0.6-0.3-0.6-0.8-0.3-1.4c0-0.1,0.1-0.1,0.2-0.2c-0.1-0.2-0.2-0.3-0.2-0.5c0,0,0,0,0,0C40.5,26.9,40.3,27.2,40.1,27.6z M38.8,22.3
	c-0.2,0.2-0.4,0.4-0.5,0.6c0.2,0.1,0.3,0.3,0.5,0.5c0-0.2,0-0.5,0.3-0.5c0.4,0,1,0.4,1.1,0.7c0,0.1,0.1,0.2,0.1,0.3
	c0.2,0.3,0.4,0.6,0.5,0.9c0.2-0.5,0.1-1.2,0-1.7c0-0.1-0.1-0.2-0.2-0.4C40.1,22.3,39.3,22,38.8,22.3z M38.6,24.8
	c-0.1-0.2-0.2-0.5-0.3-0.6c-0.1-0.1-0.1-0.2-0.2-0.3c0,0.3,0.2,0.6,0.4,0.8C38.6,24.7,38.6,24.8,38.6,24.8z M39.2,24.2
	C39.2,24.2,39.2,24.2,39.2,24.2c0.1,0.3,0.1,0.7,0,1c0.3,0.2,0.7,0.3,1,0.2c-0.1-0.3-0.3-0.6-0.5-0.8c0,0,0,0,0,0c0,0-0.1,0-0.1,0
	C39.4,24.4,39.3,24.3,39.2,24.2z M42.1,36.1c0.4,0.1,0.7,0.3,0.8,0.6c0.1,0.2,0.2,0.7,0.1,1c0.1,0.2,0.2,0.4,0.2,0.7
	c0.5-0.5,0.4-1.4,0.2-2.1c-0.1-0.7-1-1.1-1.6-1C42,35.6,42,35.8,42.1,36.1C42.1,36.1,42.1,36.1,42.1,36.1z M41.4,37.3
	c-0.1-0.2-0.1-0.7,0.1-1c-0.1-0.2-0.1-0.4-0.2-0.7c-0.4,0.5-0.6,1.4-0.5,1.9c0.2,0.9,1.1,1.4,1.9,1.1c-0.1-0.2-0.2-0.5-0.3-0.7
	C42,38,41.6,37.7,41.4,37.3z M40.7,32c0.3,0.1,0.6,0.4,0.8,0.7c0.2,0.2,0.1,0.9-0.1,1.1c0.1,0.2,0.1,0.3,0.2,0.5
	c0.4-0.4,0.6-1.1,0.6-1.7c0-0.7-0.9-1.4-1.6-1.4c0,0,0,0-0.1,0C40.6,31.4,40.7,31.7,40.7,32C40.7,31.9,40.7,31.9,40.7,32z
	 M40.7,33.7c-0.3-0.1-0.5-0.3-0.7-0.6c-0.2-0.2-0.3-0.5-0.1-0.8c0.1-0.1,0.1-0.2,0.2-0.3c0-0.2-0.1-0.4-0.2-0.6
	c-0.1,0.1-0.2,0.2-0.3,0.3c-0.3,0.3-0.5,0.7-0.5,1.2c0,0.4,0.4,0.9,0.7,1.2c0.3,0.3,0.7,0.5,1.1,0.4c-0.1-0.2-0.2-0.4-0.2-0.6
	C40.6,33.9,40.6,33.8,40.7,33.7z M38.7,29.8c0,0.2-0.1,0.3-0.1,0.5c0.3,0.2,0.6,0.2,1,0.1c-0.1-0.2-0.2-0.5-0.3-0.7c0,0,0,0,0,0
	c-0.3-0.1-0.5-0.2-0.7-0.5c-0.2-0.2-0.2-0.4-0.1-0.7c0-0.1,0.1-0.1,0.1-0.2c-0.1-0.2-0.1-0.4-0.2-0.6c-0.3,0.4-0.5,1-0.6,1.4
	c0,0.3,0.1,0.6,0.3,0.8C38.3,29.6,38.8,29.3,38.7,29.8z M40,28.7c0.2,0.3,0.2,0.6,0,0.8c0.1,0.2,0.1,0.4,0.2,0.5
	c0.2-0.2,0.4-0.5,0.5-0.8c0.1-0.3,0.1-0.6,0.1-0.8c-0.1-0.3-0.4-0.6-0.6-0.8c0,0,0,0,0,0c-0.2-0.2-0.5-0.5-0.9-0.5
	c-0.1,0-0.2,0-0.3,0.1c0.1,0.2,0.2,0.5,0.3,0.7C39.5,28,39.8,28.5,40,28.7z M36.7,23.8c-0.1,0.1-0.1,0.3-0.2,0.4
	c-0.1,0.2-0.1,0.5-0.1,0.7c0,0.1,0,0.2,0,0.2c0.1,0.6,0.7,1,1.3,1c-0.1-0.3-0.2-0.6-0.1-0.8c-0.2-0.1-0.4-0.2-0.5-0.4
	c-0.1-0.1-0.1-0.2-0.1-0.3c0-0.3,0.1-0.7,0.2-0.9c0.2-0.2,0.2-0.3,0.5-0.2c0,0,0,0,0.1,0c0.1,0.1,0.2,0.2,0.3,0.3
	c0.1,0.1,0.1,0.2,0.2,0.3c0.1,0.1,0.2,0.4,0.3,0.6c0.1,0.2,0.1,0.5-0.1,0.6c-0.1,0-0.1,0-0.2,0.1c0,0.1,0.1,0.2,0.1,0.3
	c0,0.1,0.1,0.2,0.1,0.3c0,0,0.1,0,0.1-0.1c0.3-0.2,0.5-0.5,0.6-0.8c0.1-0.3,0.1-0.7,0-1.1c0,0,0-0.1,0-0.1c-0.1-0.2-0.2-0.4-0.4-0.7
	c-0.1-0.2-0.3-0.3-0.5-0.5c-0.1-0.1-0.2-0.1-0.3-0.1c-0.2,0-0.4,0-0.6,0.2c0,0,0,0,0,0c-0.1,0.1-0.3,0.3-0.4,0.5
	C36.9,23.6,36.8,23.7,36.7,23.8z M28.1,41.2c0,0.1,0,0.2,0.2,0.3c0.1,0,0.2,0,0.4,0c0.3,0,0.7,0,1,0c0.9-0.1,1.7-0.3,1.5-1.3
	c0,0,0-0.1,0-0.1c-0.1-0.4-0.3-0.7-0.7-0.9c-0.1,0.2-0.3,0.5-0.4,0.7c0.2,0.1,0.3,0.2,0.4,0.4c0,0,0.1,0.1,0.1,0.2
	c0,0.1,0.1,0.1,0.1,0.1c0,0,0,0,0,0c-0.1,0-0.2,0-0.3,0.1c-0.3,0-0.5,0-0.8,0c-0.2,0-0.4,0-0.6,0c0,0,0,0-0.1,0
	c0.1-0.3,0.3-0.6,0.4-0.9c0.1-0.1,0.2-0.1,0.3-0.1c0,0,0-0.1,0-0.1c0.1-0.2,0.3-0.4,0.4-0.6c-0.2-0.1-0.5-0.1-0.7,0
	c-0.6,0.4-0.9,1.2-1.1,1.8c0,0.1,0,0.1-0.1,0.1C28.1,41.1,28.1,41.1,28.1,41.2z M35.1,26.7c0,0.2,0.2,0.3,0.4,0.1c0,0,0-0.1,0.1-0.1
	c0.1-0.2,0.2-0.4,0.3-0.7c0.1-0.3,0.2-0.7,0.4-1c0.1-0.2,0.1-0.4,0.2-0.6c0-0.1,0-0.1,0-0.2c0-0.2-0.2-0.3-0.3-0.2
	c-0.1,0.1-0.2,0.1-0.2,0.3c-0.1,0.2-0.1,0.3-0.2,0.5c-0.1,0.4-0.2,0.7-0.4,1.1c-0.1,0.2-0.2,0.4-0.3,0.5
	C35.1,26.5,35.1,26.6,35.1,26.7z M33.3,31.2c-0.2,0.4,0.2,0.6,0.5,0.2c0-0.1,0.1-0.1,0.1-0.2c0.1-0.2,0.3-0.5,0.4-0.7
	c0.1-0.2,0.2-0.5,0.3-0.7c0.1-0.3,0.2-0.5,0.3-0.8c0-0.1,0-0.1,0.1-0.2c0.2-0.5-0.4-0.4-0.5,0c0,0,0,0.1-0.1,0.1
	c-0.1,0.3-0.2,0.5-0.3,0.8c-0.1,0.3-0.2,0.5-0.3,0.7C33.6,30.7,33.5,30.9,33.3,31.2C33.3,31.2,33.3,31.2,33.3,31.2z M33,32.8
	c0,0.1,0,0.1-0.1,0.2C33,32.9,33.1,32.8,33,32.8C33.1,32.7,33,32.8,33,32.8z M31.7,35.4c0,0-0.1,0.3-0.1,0.2c0,0-0.1,0.1-0.1,0.1
	C31.5,36,31.7,36.4,32,36c0,0,0-0.1,0.1-0.1c0.2-0.2,0.3-0.5,0.3-0.8c0.1-0.3,0.2-0.6,0.2-0.8c0-0.2,0.1-0.3,0.1-0.5
	c0.1-0.3,0.1-0.5,0.2-0.8c0,0,0-0.1,0-0.1c0-0.1,0-0.1,0.1-0.2c0,0,0,0,0-0.1c0-0.1-0.1-0.3-0.2-0.2c-0.2,0-0.3,0.2-0.3,0.3
	c0,0,0,0.1,0,0.1c-0.1,0.3-0.1,0.5-0.2,0.8c0,0.2-0.1,0.3-0.1,0.5C32,34.4,32,34.7,31.9,35c0,0,0,0.1,0,0.1
	C31.8,35.2,31.8,35.3,31.7,35.4z M29.6,39.7c-0.2,0.4,0.2,0.6,0.5,0.2c0,0,0,0,0,0c0.1-0.2,0.3-0.5,0.4-0.7c0.1-0.2,0.2-0.5,0.3-0.7
	c0.1-0.3,0.2-0.5,0.3-0.8c0.1-0.2,0.1-0.3,0.2-0.5c0.1-0.1,0.1-0.4-0.1-0.4c-0.2,0-0.3,0.2-0.4,0.4c0,0.1-0.1,0.2-0.1,0.3
	c-0.1,0.3-0.2,0.5-0.3,0.8c-0.1,0.2-0.2,0.5-0.3,0.7C29.9,39.2,29.8,39.5,29.6,39.7C29.6,39.7,29.6,39.7,29.6,39.7z M43.3,38.3
	c-0.1-0.2-0.1-0.5-0.2-0.7c0-0.1-0.1-0.2-0.2-0.3c-0.2-0.3-0.7,0.4-0.5,0.6c0,0,0,0,0,0c0.1,0.2,0.2,0.4,0.3,0.7
	c0.1,0.2,0.1,0.4,0.1,0.6c0,0.1,0.1,0.2,0.1,0.4c0.1,0.2,0.1,0.4,0.1,0.6c0.1,0.4,0.6-0.2,0.6-0.5c0,0,0,0,0-0.1
	c-0.1-0.3-0.2-0.7-0.2-1C43.4,38.6,43.3,38.5,43.3,38.3z M41.2,33.3c-0.1-0.2-0.4,0.1-0.5,0.4c0,0.1,0,0.2,0,0.2
	c0.1,0.2,0.2,0.4,0.2,0.6c0.1,0.4,0.3,0.8,0.4,1.1c0.1,0.2,0.1,0.4,0.2,0.7c0,0.1,0,0.1,0.1,0.2c0.1,0.4,0.6-0.2,0.6-0.5
	c0,0,0,0,0,0c-0.1-0.2-0.1-0.5-0.2-0.7c-0.1-0.4-0.2-0.7-0.4-1.1c-0.1-0.2-0.1-0.3-0.2-0.5C41.3,33.6,41.2,33.5,41.2,33.3z
	 M39.8,29.3c-0.2-0.4-0.7,0.2-0.6,0.5c0,0,0,0,0,0c0.1,0.2,0.2,0.5,0.3,0.7c0,0.1,0.1,0.2,0.1,0.4c0.1,0.2,0.2,0.4,0.2,0.6
	c0.1,0.2,0.1,0.4,0.2,0.6c0,0.1,0,0.1,0,0.2c0,0.5,0.6,0,0.6-0.3c0,0,0,0,0,0c0-0.3-0.1-0.5-0.2-0.8c-0.1-0.2-0.1-0.4-0.2-0.6
	c-0.1-0.2-0.1-0.3-0.2-0.5c-0.1-0.2-0.1-0.4-0.2-0.5C39.9,29.4,39.9,29.3,39.8,29.3z M38.8,28.7C38.8,28.7,38.8,28.7,38.8,28.7
	c-0.1,0-0.1,0-0.1-0.1c0,0,0,0,0,0C38.7,28.7,38.7,28.7,38.8,28.7z M39.3,28.1C39.3,28.1,39.3,28.1,39.3,28.1
	C39.3,28.1,39.3,28,39.3,28.1C39.3,28,39.3,28.1,39.3,28.1z M38.7,28.6C38.7,28.6,38.7,28.6,38.7,28.6c0,0.1,0.1,0.2,0.2,0.2
	c0.2,0,0.5-0.3,0.4-0.6c0,0,0,0,0,0c0,0,0-0.1,0-0.1c0,0,0-0.1,0-0.1c-0.1-0.2-0.2-0.5-0.3-0.7c-0.1-0.2-0.1-0.3-0.2-0.5
	c-0.1-0.2-0.2-0.5-0.2-0.7c0-0.1-0.1-0.2-0.1-0.3c0-0.1-0.1-0.2-0.1-0.3c0,0,0-0.1,0-0.1c0-0.1,0-0.3-0.1-0.1c0-0.1,0-0.1,0-0.1
	c0-0.2-0.1-0.3-0.3-0.2c-0.1,0-0.2,0.1-0.2,0.3c0,0.1,0,0.1,0,0.2c0,0.3,0,0.5,0.1,0.8c0.1,0.2,0.2,0.5,0.2,0.7
	c0.1,0.3,0.2,0.5,0.3,0.8c0.1,0.2,0.1,0.4,0.2,0.6C38.6,28.4,38.7,28.5,38.7,28.6z M40.2,24c-0.2-0.3-0.6,0.2-0.6,0.5c0,0,0,0,0,0.1
	c0,0,0,0,0,0c0.2,0.2,0.3,0.5,0.5,0.8c0.1,0.2,0.2,0.3,0.3,0.5c0.1,0.2,0.2,0.4,0.4,0.6c0.1,0.2,0.2,0.3,0.2,0.5
	c0,0.1,0.1,0.2,0.1,0.3c0.1,0.4,0.6-0.2,0.6-0.5c0,0,0,0,0,0c-0.1-0.3-0.2-0.5-0.3-0.7c-0.1-0.2-0.2-0.4-0.3-0.6
	c-0.1-0.2-0.2-0.4-0.3-0.7C40.6,24.5,40.4,24.2,40.2,24C40.2,24,40.2,24,40.2,24z M42.3,28.2c-0.2-0.3-0.7,0.4-0.5,0.6c0,0,0,0,0,0
	c0.2,0.2,0.3,0.4,0.5,0.7c0.1,0.1,0.2,0.2,0.2,0.4c0.1,0.2,0.2,0.3,0.3,0.5c0.1,0.1,0.1,0.2,0.2,0.3c0,0,0.1,0.1,0.1,0.2
	c0.1,0.1,0.1,0.2,0.1,0.2c0.1,0.5,0.6,0,0.6-0.3c0,0,0,0,0-0.1c0-0.3-0.2-0.5-0.3-0.8c-0.1-0.2-0.2-0.3-0.3-0.5
	c-0.1-0.2-0.2-0.3-0.3-0.5c-0.1-0.2-0.2-0.3-0.4-0.5C42.5,28.4,42.4,28.3,42.3,28.2z M44.8,32.1c-0.2-0.3-0.6,0.2-0.6,0.5
	c0,0,0,0.1,0,0.1c0.2,0.2,0.3,0.5,0.5,0.7c0.2,0.3,0.3,0.7,0.5,1c0.1,0.2,0.2,0.3,0.3,0.5c0,0.1,0.1,0.1,0.1,0.2
	c0.2,0.3,0.7-0.3,0.5-0.6c0,0,0,0,0,0c-0.1-0.2-0.2-0.4-0.4-0.6c-0.2-0.3-0.3-0.6-0.5-0.9c-0.1-0.2-0.2-0.4-0.3-0.5
	C45,32.4,44.9,32.3,44.8,32.1z M47.3,36.7c-0.2-0.4-0.7,0.2-0.6,0.5c0,0.1,0.1,0.2,0.1,0.3c0.1,0.2,0.2,0.4,0.4,0.7
	c0.1,0.2,0.2,0.3,0.3,0.5c0.1,0.2,0.2,0.4,0.4,0.6c0.1,0.2,0.2,0.3,0.3,0.4c0.1,0.1,0.2,0.2,0.3,0.3c0.2,0.1,0.5-0.2,0.5-0.4
	c0-0.1,0-0.2-0.1-0.3c-0.2-0.1-0.3-0.3-0.4-0.5c-0.2-0.3-0.3-0.5-0.5-0.8c-0.1-0.1-0.2-0.3-0.3-0.4c-0.1-0.2-0.2-0.3-0.3-0.5
	C47.5,37,47.4,36.9,47.3,36.7z M38.2,37.7c-0.6-2.4-0.1-5,0.4-7.4c0-0.2,0.1-0.4,0.1-0.5c0.1-0.5-0.4-0.2-0.6,0.1c0,0,0,0,0,0
	c-0.5,2.6-1.1,5.4-0.6,8c0.1,0.5,0.3,1,0.5,1.5c0,0,0,0.1,0.1,0.1c0.1,0.2,0.3,0.4,0.4,0.6c0,0.1,0.1,0.1,0.1,0.2
	c0.1,0.2,0.3,0.1,0.4,0c0.1-0.1,0.2-0.3,0.2-0.5c-0.1-0.1-0.1-0.3-0.2-0.4c-0.1-0.1-0.2-0.2-0.2-0.4C38.5,38.7,38.3,38.2,38.2,37.7z
	 M111.9,57.6v2.1c0,4.6,1.3,8.1,6.2,8.1c5,0,6.4-3.7,6.4-7.2c0-13.1-26-5.8-26-28.4c0-9.7,5.2-17.8,19.8-17.8
	c14.2,0,19.3,7.2,19.3,16.5v1.4H124c0-2.9-0.3-5-1.2-6.4c-0.8-1.4-2.2-2.1-4.3-2.1c-3.6,0-5.7,2.1-5.7,6.5c0,12.6,26,6.3,26,27.6
	c0,13.7-7.6,19.2-20.7,19.2c-10.3,0-19.9-3.1-19.9-15.8v-3.9H111.9z M141.4,15.5h15.3l7.2,46.8h0.2l7.3-46.8h15.3l-13.7,60.5h-18.1
	L141.4,15.5z M191.2,15.5h35V27h-20.8v12.1h19.5v11.5h-19.5v13.8h21.7v11.5h-36V15.5z M233.6,15.5H250l11.7,39.3h0.2V15.5h13.2v60.5
	H259l-12.5-41.7h-0.2v41.7h-12.7V15.5z M295.7,57.6v2.1c0,4.6,1.3,8.1,6.2,8.1c5,0,6.4-3.7,6.4-7.2c0-13.1-26-5.8-26-28.4
	c0-9.7,5.2-17.8,19.8-17.8c14.2,0,19.3,7.2,19.3,16.5v1.4h-13.7c0-2.9-0.3-5-1.2-6.4c-0.8-1.4-2.2-2.1-4.3-2.1
	c-3.6,0-5.7,2.1-5.7,6.5c0,12.6,26,6.3,26,27.6c0,13.7-7.6,19.2-20.7,19.2c-10.3,0-19.9-3.1-19.9-15.8v-3.9H295.7z M329.4,15.5h14.2
	v23.9h0.2l13.3-23.9h15.3l-15.9,26.1l17.8,34.4h-16l-10.9-22.8l-3.8,5.9v17h-14.2V15.5z M389.3,15.5h17.8l15.1,60.5h-14.8l-2.2-11.5
	h-14.5l-2.1,11.5h-14.8L389.3,15.5z M397.9,26.5h-0.2l-5,27h10.3L397.9,26.5z M468.1,15.5h14.2v42.3c0,11.3-4.5,19.4-18.6,19.4
	c-12.8,0-18.1-6.1-18.1-16.7v-3.7H459v2.6c0,4.1,0.1,8.3,4.7,8.3c4.1,0,4.5-4.2,4.5-9.9V15.5z M502.4,15.5h17.8l15.1,60.5h-14.8
	l-2.2-11.5h-14.5l-2.1,11.5H487L502.4,15.5z M498.4,0.2h10.5v11h-10.5V0.2z M511,26.5h-0.2l-5,27h10.3L511,26.5z M513.3,0.2h10.5v11
	h-10.5V0.2z M539.9,15.5h23.9c12.1,0,16.3,7.5,16.3,15.8c0,8.8-3.6,13.1-10.2,14.8v0.2c9.1,1.3,9.6,7,9.8,15.1
	c0.3,12,0.7,13.1,2.7,14v0.8H567c-1.1-2-1.5-5.4-1.5-12.3c0-10.5-1.4-12.7-5.9-12.7h-5.4v25h-14.2V15.5z M554.1,41h4.4
	c5.8,0,7.3-4.3,7.3-7.9c0-4.6-1.7-7.6-7.4-7.6h-4.3V41z M588.5,15.5h16.4l11.7,39.3h0.2V15.5H630v60.5h-16.1l-12.5-41.7h-0.2v41.7
	h-12.7V15.5z"/>
<path class="st0" d="M11.2,18.3C31.8-3.3,59.7,4.5,71.7,22.6c2.1-0.7,5.6-2,5.6-2l-5,21L56.1,27.8c0,0,3-1,5.4-1.9
	C50.7,13,34.2,12.1,21.9,22.1c0.6-3.5,1.2-7.2,1.2-7.2S14.2,17.5,11.2,18.3z M23.1,72.4c0,0,3.5-1.3,6.8-2.5
	C15.1,64.2,7.6,49.5,13.4,33.6c2,1.7,4.4,3.7,4.4,3.7l3.9-20.9L0.9,22.6c0,0,2.8,2.4,4.5,3.8C-4.2,45.9,3,73.9,32,81
	C29.8,78.8,23.1,72.4,23.1,72.4z M72.9,43.7c0,0-2.9-2.4-5.6-4.6c2.5,15.6-6.5,29.5-23.1,32.4c0.5-2.5,1.1-5.6,1.1-5.6l-20,7.1
	l15.6,14.8c0,0,0.7-3.6,1.1-5.8c21.7-1.4,42.4-21.6,33.9-50.3C75.1,34.6,72.9,43.7,72.9,43.7z"/>
</svg>
