<?xml version="1.0" encoding="utf-8"?>
<!-- Generator: Adobe Illustrator 22.0.1, SVG Export Plug-In . SVG Version: 6.00 Build 0)  -->
<svg version="1.1" id="Layer_1" xmlns="http://www.w3.org/2000/svg" xmlns:xlink="http://www.w3.org/1999/xlink" x="0px" y="0px"
	 viewBox="0 0 100 100" style="enable-background:new 0 0 100 100;" xml:space="preserve">
<style type="text/css">
	.st0{fill:#FFFFFF;}
</style>
<path class="st0" d="M94.5,5.5C90.8,1.8,86.4,0,81.3,0H18.8C13.6,0,9.2,1.8,5.5,5.5C1.8,9.2,0,13.6,0,18.7v62.5
	c0,5.2,1.8,9.6,5.5,13.2c3.7,3.7,8.1,5.5,13.2,5.5h62.5c5.2,0,9.6-1.8,13.2-5.5c3.7-3.7,5.5-8.1,5.5-13.2V18.7
	C100,13.6,98.2,9.2,94.5,5.5z M32.1,77.6H20.3V40.1h11.8V77.6z M25.9,35.4L25.9,35.4c-4.4,0-7.1-2.9-7.1-6.5c0-3.7,2.9-6.5,7.2-6.5
	c4.4,0,7,2.8,7.1,6.5C33.1,32.5,30.3,35.4,25.9,35.4z M79.4,77.6H66V58.2c0-5.1-2.1-8.5-6.7-8.5c-3.5,0-5.5,2.3-6.4,4.6
	c-0.3,0.8-0.3,1.9-0.3,3.1v20.3H39.3c0,0,0.2-34.3,0-37.5h13.3V46c0.8-2.6,5-6.2,11.8-6.2c8.4,0,15,5.4,15,17V77.6z"/>
</svg>
